<?xml version="1.0" encoding="utf-8"?>
<!-- Generator: Adobe Illustrator 22.0.0, SVG Export Plug-In . SVG Version: 6.00 Build 0)  -->
<svg version="1.1" id="Capa_1" xmlns="http://www.w3.org/2000/svg" xmlns:xlink="http://www.w3.org/1999/xlink" x="0px" y="0px"
	 viewBox="0 0 2004 206.7" style="enable-background:new 0 0 2004 206.7;" xml:space="preserve">
<style type="text/css">
	.st0{fill:#0166FE;}
</style>
<path class="st0" d="M0,206.7c692.6,0,1385.2,0,2077.9,0c0-65.5,0.1-131,0.1-196.4c-4-1.8-9.5,0.8-12.7-3.5c-15.3,0-30.6,0-45.9,0
	c-5.5,7.7-14,3.6-20.8,3.8C1831.2,14.2,1664.1,21.6,1498,42c-144.6,17.7-286.1,50.1-428.4,78.5c-113.4,22.6-227.6,41.7-344,43.7
	c-158.6,2.7-311.4-28-462.2-69.9C174.5,69.5,88.4,37.5,0.2,11.1C0.1,76.3,0.1,141.5,0,206.7z"/>
</svg>
